# xmcd
#
# Track frame offsets:
# 150
# 5923
# 19168
# 27609
# 37198
# 44219
# 49687
# 56118
# 68899
# 75995
# 86905
# 94723
# 99560
# 112131
# 120662
# 128713
# 138424
# 147997
# 157936
# 170971
# 184481
# 193570
# 206694
# 212267
# 226813
# 237526
# 244692
# 253783
# 263937
#
# Disc length: 3619 seconds
#
#
# Revision: 0
# Processed by: cddbd v1.5.2PL0 Copyright (c) Steve Scherf et al.
# Submitted via: FreeRIP 2.96 
#
DISCID=b60e211d
DTITLE=Labircanka - A v nasim Labirci
DYEAR=2007
DGENRE=Folklore
TTITLE0=A v nasim Labirci
TTITLE1=Az sa pid Kamjanou
TTITLE2=Boju sja, boju sja
TTITLE3=Dobra rada
TTITLE4=Ci ste culi dobri lude
TTITLE5=Cija vina, materina
TTITLE6=Ciluvav na milyj
TTITLE7=Pisna pro mamu
TTITLE8=Dobra ja gazdyna
TTITLE9=Dolov dolinockou
TTITLE10=Iz klubu dochodciv
TTITLE11=Koby mi zahrali
TTITLE12=Laborec milyj
TTITLE13=Mamko moja
TTITLE14=Misjacok vychodyt
TTITLE15=Stary hrusy
TTITLE16=Obicjav mi Ivan
TTITLE17=Oddala by ja sja
TTITLE18=Zacvila ceresna
TTITLE19=Poslala na svekra
TTITLE20=Labirska dolina
TTITLE21=Prjadu, ze ja prjadu
TTITLE22=Na Kicary
TTITLE23=Skoro na oddali
TTITLE24=Spivam sobi, spivam
TTITLE25=Uz zarosli drazky
TTITLE26=Vcera vecur nad Kicarou
TTITLE27=Vytikat vodicka
TTITLE28=Kominarik
EXTD=
EXTT0=
EXTT1=
EXTT2=
EXTT3=
EXTT4=
EXTT5=
EXTT6=
EXTT7=
EXTT8=
EXTT9=
EXTT10=
EXTT11=
EXTT12=
EXTT13=
EXTT14=
EXTT15=
EXTT16=
EXTT17=
EXTT18=
EXTT19=
EXTT20=
EXTT21=
EXTT22=
EXTT23=
EXTT24=
EXTT25=
EXTT26=
EXTT27=
EXTT28=
PLAYORDER=
